<svg width="240" height="36" viewBox="0 0 240 36" fill="none" xmlns="http://www.w3.org/2000/svg">
<rect width="240" height="36" rx="2" fill="#EEF1EC"/>
<path d="M21.9443 23.0034V24H17.0503V23.0034H21.9443ZM17.2979 14.7578V24H16.0728V14.7578H17.2979ZM21.2969 18.7314V19.728H17.0503V18.7314H21.2969ZM21.8809 14.7578V15.7607H17.0503V14.7578H21.8809ZM24.458 18.5981V24H23.2837V17.1318H24.3945L24.458 18.5981ZM24.1787 20.3057L23.6899 20.2866C23.6942 19.8169 23.764 19.3831 23.8994 18.9854C24.0348 18.5833 24.2253 18.2342 24.4707 17.938C24.7161 17.6418 25.0081 17.4132 25.3467 17.2524C25.6895 17.0874 26.0682 17.0049 26.4829 17.0049C26.8215 17.0049 27.1261 17.0514 27.397 17.1445C27.6678 17.2334 27.8984 17.3773 28.0889 17.5762C28.2835 17.7751 28.4316 18.0332 28.5332 18.3506C28.6348 18.6637 28.6855 19.0467 28.6855 19.4995V24H27.5049V19.4868C27.5049 19.1271 27.452 18.8394 27.3462 18.6235C27.2404 18.4035 27.0859 18.2448 26.8828 18.1475C26.6797 18.0459 26.43 17.9951 26.1338 17.9951C25.8418 17.9951 25.5752 18.0565 25.334 18.1792C25.097 18.3019 24.8918 18.4712 24.7183 18.687C24.549 18.9028 24.4157 19.1504 24.3184 19.4297C24.2253 19.7048 24.1787 19.9967 24.1787 20.3057ZM33.3447 17.1318V18.0332H29.6313V17.1318H33.3447ZM30.8882 15.4624H32.0625V22.2988C32.0625 22.5316 32.0985 22.7072 32.1704 22.8257C32.2424 22.9442 32.3354 23.0225 32.4497 23.0605C32.564 23.0986 32.6867 23.1177 32.8179 23.1177C32.9152 23.1177 33.0168 23.1092 33.1226 23.0923C33.2326 23.0711 33.3151 23.0542 33.3701 23.0415L33.3765 24C33.2834 24.0296 33.1606 24.0571 33.0083 24.0825C32.8602 24.1121 32.6803 24.127 32.4688 24.127C32.181 24.127 31.9165 24.0698 31.6753 23.9556C31.4341 23.8413 31.2415 23.6509 31.0977 23.3843C30.958 23.1134 30.8882 22.7495 30.8882 22.2925V15.4624ZM37.5723 24.127C37.0941 24.127 36.6603 24.0465 36.271 23.8857C35.8859 23.7207 35.5537 23.4901 35.2744 23.1938C34.9993 22.8976 34.7878 22.5464 34.6396 22.1401C34.4915 21.7339 34.4175 21.2896 34.4175 20.8071V20.5405C34.4175 19.9819 34.5 19.4847 34.665 19.0488C34.8301 18.6087 35.0544 18.2363 35.3379 17.9316C35.6214 17.627 35.943 17.3963 36.3027 17.2397C36.6624 17.0832 37.0348 17.0049 37.4199 17.0049C37.9108 17.0049 38.334 17.0895 38.6895 17.2588C39.0492 17.4281 39.3433 17.665 39.5718 17.9697C39.8003 18.2702 39.9696 18.6257 40.0796 19.0361C40.1896 19.4424 40.2446 19.8867 40.2446 20.3691V20.896H35.1157V19.9375H39.0703V19.8486C39.0534 19.5439 38.9899 19.2477 38.8799 18.96C38.7741 18.6722 38.6048 18.4352 38.3721 18.249C38.1393 18.0628 37.8219 17.9697 37.4199 17.9697C37.1533 17.9697 36.9079 18.0269 36.6836 18.1411C36.4593 18.2511 36.2668 18.4162 36.106 18.6362C35.9451 18.8563 35.8203 19.125 35.7314 19.4424C35.6426 19.7598 35.5981 20.1258 35.5981 20.5405V20.8071C35.5981 21.133 35.6426 21.4398 35.7314 21.7275C35.8245 22.0111 35.9578 22.2607 36.1313 22.4766C36.3091 22.6924 36.5228 22.8617 36.7725 22.9844C37.0264 23.1071 37.3141 23.1685 37.6357 23.1685C38.0505 23.1685 38.4017 23.0838 38.6895 22.9146C38.9772 22.7453 39.229 22.5189 39.4448 22.2354L40.1558 22.8003C40.0076 23.0246 39.8193 23.2383 39.5908 23.4414C39.3623 23.6445 39.0809 23.8096 38.7466 23.9365C38.4165 24.0635 38.0251 24.127 37.5723 24.127ZM42.79 18.2109V24H41.6157V17.1318H42.7583L42.79 18.2109ZM44.9355 17.0938L44.9292 18.1855C44.8319 18.1644 44.7388 18.1517 44.6499 18.1475C44.5653 18.139 44.4679 18.1348 44.3579 18.1348C44.0871 18.1348 43.848 18.1771 43.6406 18.2617C43.4333 18.3464 43.2576 18.4648 43.1138 18.6172C42.9699 18.7695 42.8556 18.9515 42.771 19.1631C42.6906 19.3704 42.6377 19.599 42.6123 19.8486L42.2822 20.0391C42.2822 19.6243 42.3224 19.235 42.4028 18.8711C42.4875 18.5072 42.6165 18.1855 42.79 17.9062C42.9635 17.6227 43.1836 17.4027 43.4502 17.2461C43.721 17.0853 44.0426 17.0049 44.415 17.0049C44.4997 17.0049 44.597 17.0155 44.707 17.0366C44.8171 17.0535 44.8932 17.0726 44.9355 17.0938ZM55.2949 23.0034V24H50.4009V23.0034H55.2949ZM50.6484 14.7578V24H49.4233V14.7578H50.6484ZM54.6475 18.7314V19.728H50.4009V18.7314H54.6475ZM55.2314 14.7578V15.7607H50.4009V14.7578H55.2314ZM57.8022 18.4966V24H56.6216V17.1318H57.7388L57.8022 18.4966ZM57.561 20.3057L57.0151 20.2866C57.0194 19.8169 57.0807 19.3831 57.1992 18.9854C57.3177 18.5833 57.4933 18.2342 57.7261 17.938C57.9588 17.6418 58.2487 17.4132 58.5957 17.2524C58.9427 17.0874 59.3447 17.0049 59.8018 17.0049C60.1234 17.0049 60.4196 17.0514 60.6904 17.1445C60.9613 17.2334 61.1961 17.3752 61.395 17.5698C61.5939 17.7645 61.7484 18.0142 61.8584 18.3188C61.9684 18.6235 62.0234 18.9917 62.0234 19.4233V24H60.8491V19.4805C60.8491 19.1208 60.7878 18.833 60.665 18.6172C60.5465 18.4014 60.3773 18.2448 60.1572 18.1475C59.9372 18.0459 59.679 17.9951 59.3828 17.9951C59.0358 17.9951 58.7459 18.0565 58.5132 18.1792C58.2804 18.3019 58.0942 18.4712 57.9546 18.687C57.8149 18.9028 57.7134 19.1504 57.6499 19.4297C57.5907 19.7048 57.561 19.9967 57.561 20.3057ZM62.0107 19.6582L61.2236 19.8994C61.2279 19.5228 61.2892 19.161 61.4077 18.814C61.5304 18.467 61.7061 18.158 61.9346 17.8872C62.1673 17.6164 62.453 17.4027 62.7915 17.2461C63.13 17.0853 63.5173 17.0049 63.9531 17.0049C64.3213 17.0049 64.6471 17.0535 64.9307 17.1509C65.2184 17.2482 65.4596 17.3984 65.6543 17.6016C65.8532 17.8005 66.0034 18.0565 66.105 18.3696C66.2065 18.6828 66.2573 19.0552 66.2573 19.4868V24H65.0767V19.4741C65.0767 19.089 65.0153 18.7907 64.8926 18.5791C64.7741 18.3633 64.6048 18.2131 64.3848 18.1284C64.1689 18.0396 63.9108 17.9951 63.6104 17.9951C63.3522 17.9951 63.1237 18.0396 62.9248 18.1284C62.7259 18.2173 62.5588 18.34 62.4233 18.4966C62.2879 18.6489 62.1842 18.8245 62.1123 19.0234C62.0446 19.2223 62.0107 19.4339 62.0107 19.6582ZM72.0845 22.8257V19.29C72.0845 19.0192 72.0295 18.7843 71.9194 18.5854C71.8136 18.3823 71.6528 18.2257 71.437 18.1157C71.2212 18.0057 70.9546 17.9507 70.6372 17.9507C70.341 17.9507 70.0807 18.0015 69.8564 18.103C69.6364 18.2046 69.4629 18.3379 69.3359 18.5029C69.2132 18.668 69.1519 18.8457 69.1519 19.0361H67.9775C67.9775 18.7907 68.041 18.5474 68.168 18.3062C68.2949 18.0649 68.4769 17.847 68.7139 17.6523C68.9551 17.4535 69.2428 17.2969 69.5771 17.1826C69.9157 17.0641 70.2923 17.0049 70.707 17.0049C71.2064 17.0049 71.6465 17.0895 72.0273 17.2588C72.4124 17.4281 72.7129 17.6841 72.9287 18.0269C73.1488 18.3654 73.2588 18.7907 73.2588 19.3027V22.502C73.2588 22.7305 73.2778 22.9738 73.3159 23.2319C73.3582 23.4901 73.4196 23.7122 73.5 23.8984V24H72.2749C72.2157 23.8646 72.1691 23.6847 72.1353 23.4604C72.1014 23.2319 72.0845 23.0203 72.0845 22.8257ZM72.2876 19.8359L72.3003 20.6611H71.1133C70.779 20.6611 70.4806 20.6886 70.2183 20.7437C69.9559 20.7944 69.7358 20.8727 69.5581 20.9785C69.3804 21.0843 69.245 21.2176 69.1519 21.3784C69.0588 21.535 69.0122 21.7191 69.0122 21.9307C69.0122 22.1465 69.0609 22.3433 69.1582 22.521C69.2555 22.6987 69.4015 22.8405 69.5962 22.9463C69.7951 23.0479 70.0384 23.0986 70.3262 23.0986C70.6859 23.0986 71.0033 23.0225 71.2783 22.8701C71.5534 22.7178 71.7713 22.5316 71.9321 22.3115C72.0972 22.0915 72.186 21.8778 72.1987 21.6704L72.7002 22.2354C72.6706 22.4131 72.5902 22.6099 72.459 22.8257C72.3278 23.0415 72.1522 23.2489 71.9321 23.4478C71.7163 23.6424 71.4582 23.8053 71.1577 23.9365C70.8615 24.0635 70.5272 24.127 70.1548 24.127C69.6893 24.127 69.2809 24.036 68.9297 23.854C68.5827 23.672 68.3118 23.4287 68.1172 23.124C67.9268 22.8151 67.8315 22.4702 67.8315 22.0894C67.8315 21.7212 67.9035 21.3975 68.0474 21.1182C68.1912 20.8346 68.3986 20.5998 68.6694 20.4136C68.9403 20.2231 69.2661 20.0793 69.647 19.9819C70.0278 19.8846 70.4531 19.8359 70.9229 19.8359H72.2876ZM76.3818 17.1318V24H75.2012V17.1318H76.3818ZM75.1123 15.3101C75.1123 15.1196 75.1694 14.9588 75.2837 14.8276C75.4022 14.6965 75.5757 14.6309 75.8042 14.6309C76.0285 14.6309 76.1999 14.6965 76.3184 14.8276C76.4411 14.9588 76.5024 15.1196 76.5024 15.3101C76.5024 15.492 76.4411 15.6486 76.3184 15.7798C76.1999 15.9067 76.0285 15.9702 75.8042 15.9702C75.5757 15.9702 75.4022 15.9067 75.2837 15.7798C75.1694 15.6486 75.1123 15.492 75.1123 15.3101ZM79.543 14.25V24H78.3623V14.25H79.543Z" fill="#83A7A5"/>
<path fill-rule="evenodd" clip-rule="evenodd" d="M208 18.375L213 20.25L213.625 26.5L216.75 22.125L221.125 26.5L225.5 9L208 18.375ZM220.449 24.0547L216.75 20.25L221.75 13.375L214.25 19.3828L211.023 18.1719L223.602 11.4336L220.449 24.0547Z" fill="#6FB048"/>
</svg>
