<svg width="98" height="21" viewBox="0 0 98 21" fill="none" xmlns="http://www.w3.org/2000/svg">
<path d="M29.555 0.817499L24.2938 21H18.3425L15.1225 7.7175L11.7875 21H5.83625L0.71875 0.817499H5.98L8.88375 15.5087L12.4775 0.817499H17.8825L21.3325 15.5087L24.265 0.817499H29.555ZM44.5843 17.435H37.0518L35.8443 21H30.698L38.0005 0.817499H43.693L50.9955 21H45.7918L44.5843 17.435ZM43.3193 13.64L40.818 6.25125L38.3455 13.64H43.3193ZM68.5993 7.315C68.5993 8.48417 68.331 9.5575 67.7943 10.535C67.2576 11.4933 66.4335 12.2696 65.3218 12.8637C64.2101 13.4579 62.8301 13.755 61.1818 13.755H58.1343V21H53.218V0.817499H61.1818C62.7918 0.817499 64.1526 1.09542 65.2643 1.65125C66.376 2.20708 67.2097 2.97375 67.7655 3.95125C68.3214 4.92875 68.5993 6.05 68.5993 7.315ZM60.808 9.845C61.7472 9.845 62.4468 9.62458 62.9068 9.18375C63.3668 8.74292 63.5968 8.12 63.5968 7.315C63.5968 6.51 63.3668 5.88708 62.9068 5.44625C62.4468 5.00542 61.7472 4.785 60.808 4.785H58.1343V9.845H60.808ZM76.075 0.817499V21H71.1587V0.817499H76.075ZM91.339 21L84.554 12.0875V21H79.6377V0.817499H84.554V9.6725L91.2815 0.817499H97.0602L89.2402 10.7075L97.3477 21H91.339Z" fill="white"/>
</svg>
